<svg width="293" height="226" fill="none" xmlns="http://www.w3.org/2000/svg"><path fill-rule="evenodd" clip-rule="evenodd" d="M181.573 122.917C206.656 77.4781 248.45 37.6255 260.386 27.377C268.558 19.8679 267.378 13.1877 267.378 13.1877C265.674 6.11711 251.804 1.65968 234.045 0.308032C111.872 -6.07775 3.24908 87.5944 0.111502 209.567C-0.912276 249.438 5.08586 278.693 19.2682 308.381C23.6042 317.242 33.6493 314.689 34.7273 307.384C37.5999 251.36 56.7445 181.615 76.0337 147.253C88.9634 125.711 102.23 103.928 119.189 118.172C126.145 125.537 115.552 138.218 104.374 162.229C85.1212 205.662 77.1599 244.247 71.4869 272.217C65.5129 306.597 63.5014 342.557 66.2958 372.449C68.8371 416.291 88.2528 443.81 100.442 435.376C108.343 428.672 95.5457 422.13 99.3819 413.906C99.3819 413.906 101.761 409.172 107.175 409.16C107.175 409.16 109.252 409.527 113.624 409.226C121.55 408.74 119.731 395.764 119.731 395.764C115.509 349.862 124.766 292.546 124.766 292.546C134.66 226.46 156.503 168.363 181.573 122.917ZM407.934 112.428C407.934 112.428 403.83 105.872 410.06 97.6055C410.06 97.6055 413.798 93.4571 420.711 92.2744C420.711 92.2744 422.544 91.9802 424.743 91.596C424.743 91.596 432.47 90.3833 432.213 81.7802C432.213 81.7802 432.362 74.3479 420.981 73.2432C420.981 73.2432 410.498 72.2406 399.026 77.3676C399.026 77.3676 375.346 86.7391 342.268 120.821C317.198 146.744 285.923 200.566 268.485 258.122C250.73 316.716 243.2 371.18 252.174 427.559C252.174 427.559 257.319 455.079 272.133 465.321C272.133 465.321 277.105 468.917 282.113 467.176C282.113 467.176 284.887 465.909 285.917 464.144C287.091 462.259 288.295 458.513 285.857 455.043C285.857 455.043 285.102 453.812 284 452.125C284 452.125 281.556 448.403 281.029 443.979C281.029 443.979 279.597 436.204 283.185 431.455C286.163 426.983 290.464 425.818 290.464 425.818C365.391 401.113 429.427 326.13 435.567 233.225C437.993 186.776 430.415 149.02 407.934 112.428ZM334.047 84.6513C334.047 84.6513 346.458 73.5124 356.323 67.2184C356.323 67.2184 361.178 64.236 361.243 58.3312C361.243 58.3312 361.488 52.672 354.862 47.1325C354.862 47.1325 352.828 45.2461 351.384 42.8207C351.384 42.8207 349.172 38.8922 351.838 33.0532C351.838 33.0532 353.973 28.6336 358.506 27.0287C358.506 27.0287 360.629 26.1424 366.062 24.7949C366.062 24.7949 369.378 24.3218 371.269 22.7348C373.41 20.8424 373.619 16.878 372.474 14.1771C372.474 14.1771 370.917 9.79941 360.999 9.17659C360.999 9.17659 354.343 8.2244 345.397 10.3025C345.397 10.3025 338.812 11.5421 329.818 15.297C324.457 18.1835 238.645 51.5581 182.213 218.826C182.213 218.826 157.563 296.092 155.422 378.364C155.422 378.364 151.903 435.86 170.708 467.301C170.708 467.301 173.428 472.289 179.613 477.128C179.613 477.128 184.807 481.578 190.247 476.757C190.247 476.757 195.716 472.475 190.08 463.588C190.08 463.588 189.209 462.252 188.141 458.988C188.141 458.988 186.799 453.874 188.803 449.113C188.803 449.113 191.207 441.148 200.946 440.088C200.946 440.088 210.805 440.358 215.493 434.321C215.493 434.321 220.079 427.782 218.552 418.308C218.552 418.308 217.413 406.139 216.322 390.101C214.658 361.518 216.399 336.042 223.443 298.529C223.443 298.529 233.677 248.632 243.894 223.42C254.11 198.208 273.171 143.292 334.047 84.6513Z" fill="#006BFF"/></svg>