<svg width="1395" height="1395" fill="none" xmlns="http://www.w3.org/2000/svg"><path opacity="0.7" fill-rule="evenodd" clip-rule="evenodd" d="M369.123 474.477C470.259 299.075 638.778 145.239 686.905 105.679C719.856 76.6924 715.097 50.9063 715.097 50.9063C708.225 23.6128 652.303 6.40657 580.695 1.18904C88.0801 -23.4609 -349.899 338.125 -362.55 808.955C-366.678 962.86 -342.493 1075.79 -285.308 1190.39C-267.825 1224.59 -227.322 1214.74 -222.976 1186.54C-211.393 970.281 -134.2 701.056 -56.4237 568.415C-4.2897 485.26 49.2042 401.176 117.583 456.157C145.629 484.587 102.917 533.539 57.8487 626.226C-19.7818 793.882 -51.883 942.825 -74.7569 1050.79C-98.8449 1183.5 -106.955 1322.31 -95.6882 1437.7C-85.4411 1606.93 -7.155 1713.16 41.9923 1680.61C73.8507 1654.73 22.2509 1629.47 37.7187 1597.73C37.7187 1597.73 47.3102 1579.46 69.1399 1579.41C69.1399 1579.41 77.5173 1580.82 95.1462 1579.66C127.102 1577.79 119.768 1527.7 119.768 1527.7C102.747 1350.51 140.068 1129.26 140.068 1129.26C179.964 874.162 268.036 649.901 369.123 474.477ZM1281.83 433.987C1281.83 433.987 1265.29 408.681 1290.41 376.769C1290.41 376.769 1305.48 360.756 1333.35 356.191C1333.35 356.191 1340.74 355.055 1349.61 353.572C1349.61 353.572 1380.77 348.891 1379.73 315.682C1379.73 315.682 1380.33 286.992 1334.44 282.728C1334.44 282.728 1292.17 278.858 1245.92 298.649C1245.92 298.649 1150.44 334.824 1017.06 466.385C915.979 566.451 789.873 774.209 719.562 996.382C647.971 1222.56 617.609 1432.8 653.792 1650.43C653.792 1650.43 674.54 1756.66 734.271 1796.2C734.271 1796.2 754.319 1810.08 774.511 1803.36C774.511 1803.36 785.695 1798.47 789.849 1791.66C794.583 1784.38 799.438 1769.92 789.607 1756.52C789.607 1756.52 786.564 1751.77 782.12 1745.26C782.12 1745.26 772.265 1730.89 770.14 1713.81C770.14 1713.81 764.367 1683.8 778.835 1665.47C790.839 1648.21 808.182 1643.71 808.182 1643.71C1110.29 1548.35 1368.5 1258.9 1393.25 900.278C1403.04 720.978 1372.48 575.234 1281.83 433.987ZM983.914 326.764C983.914 326.764 1033.96 283.767 1073.73 259.471C1073.73 259.471 1093.31 247.959 1093.57 225.166C1093.57 225.166 1094.56 203.32 1067.84 181.937C1067.84 181.937 1059.64 174.656 1053.82 165.293C1053.82 165.293 1044.9 150.129 1055.65 127.59C1055.65 127.59 1064.26 110.529 1082.53 104.334C1082.53 104.334 1091.1 100.913 1113 95.7115C1113 95.7115 1126.37 93.8853 1134 87.7593C1142.63 80.4544 1143.47 65.1511 1138.85 54.7254C1138.85 54.7254 1132.58 37.8269 1092.59 35.4228C1092.59 35.4228 1065.75 31.7472 1029.68 39.7688C1029.68 39.7688 1003.13 44.5539 966.864 59.0482C945.245 70.1905 599.244 199.021 371.702 844.698C371.702 844.698 272.312 1142.95 263.679 1460.53C263.679 1460.53 249.491 1682.48 325.314 1803.84C325.314 1803.84 336.28 1823.1 361.218 1841.77C361.218 1841.77 382.163 1858.95 404.095 1840.34C404.095 1840.34 426.147 1823.81 403.422 1789.51C403.422 1789.51 399.911 1784.35 395.606 1771.75C395.606 1771.75 390.195 1752.01 398.275 1733.63C398.275 1733.63 407.967 1702.89 447.237 1698.8C447.237 1698.8 486.988 1699.84 505.89 1676.53C505.89 1676.53 524.383 1651.29 518.226 1614.72C518.226 1614.72 513.633 1567.75 509.232 1505.84C502.523 1395.5 509.545 1297.16 537.946 1152.36C537.946 1152.36 579.212 959.75 620.406 862.428C661.6 765.106 738.457 553.125 983.914 326.764Z" fill="url(#paint0_radial_4390_4244)"/><defs><radialGradient id="paint0_radial_4390_4244" cx="0" cy="0" r="1" gradientUnits="userSpaceOnUse" gradientTransform="translate(1097.2 -0.000238058) rotate(136.18) scale(1995.09 2282.94)"><stop stop-color="#20A4FF"/><stop offset="0.00549288" stop-color="#20A4FF"/><stop offset="0.021672" stop-color="#20A4FF"/><stop offset="0.0480879" stop-color="#20A4FE"/><stop offset="0.0842914" stop-color="#20A5FC"/><stop offset="0.129833" stop-color="#20A6F9"/><stop offset="0.184264" stop-color="#20A7F4"/><stop offset="0.247134" stop-color="#20A9EE"/><stop offset="0.317994" stop-color="#21ACE6"/><stop offset="0.396396" stop-color="#21AFDB"/><stop offset="0.481888" stop-color="#21B3CD"/><stop offset="0.574024" stop-color="#22B8BD"/><stop offset="0.672352" stop-color="#22BEA9"/><stop offset="0.776423" stop-color="#23C592"/><stop offset="0.885789" stop-color="#23CD76"/><stop offset="1" stop-color="#24D657"/></radialGradient></defs></svg>